<?xml version="1.0" encoding="utf-8"?>
<!-- Generator: Adobe Illustrator 25.0.0, SVG Export Plug-In . SVG Version: 6.00 Build 0)  -->
<svg version="1.1" id="Layer_1" xmlns="http://www.w3.org/2000/svg" xmlns:xlink="http://www.w3.org/1999/xlink" x="0px" y="0px"
	 viewBox="0 0 883.9 441" style="enable-background:new 0 0 883.9 441;" xml:space="preserve">
<style type="text/css">
	.st0{fill:#FFFFFF;}
	.st1{fill:#FEAF00;}
</style>
<g>
	<path class="st0" d="M869.6,0.4h-199h-30.3l23.3,19.4l44.9,37.5l-49.9,208L570.8,7.6l-2.5-7.4l-7.9,0L387.3,0l-8.1,0l-2.4,7.7
		l-80.6,256.4L234.2,8.4l-2-8.4h-8.6H30.8H0l23.8,19.5l67.4,55.3L172,432.4l1.9,8.6h8.8h195.6h8l2.5-7.6l86.5-262.3l88.9,262.4
		l2.5,7.5h7.9H757h8.4l2.2-8.1L880.2,14.2l3.7-13.9H869.6z M757,430H574.5l-99.4-293.6L378.3,430H182.7L101.1,68.7L30.8,11h192.7
		l71.4,294.1L387.3,11l173.1,0.2l100,293.6l60.3-251.6l-50.1-41.9c66.6,0,132.4,0,199,0L757,430z"/>
	<path class="st1" d="M670.5,11.4l50.1,41.9l-60.3,251.6l-100-293.6L387.3,11l-92.4,294.1L223.5,11H30.8l70.3,57.7L182.7,430h195.6
		l96.8-293.6L574.5,430H757L869.6,11.4C803,11.4,737.1,11.4,670.5,11.4z"/>
</g>
</svg>
